<svg xmlns="http://www.w3.org/2000/svg" width="32" height="32" viewBox="0 0 32 32" preserveAspectRatio="xMinYMid" aria-hidden="true" focusable="false"><path d="M9.49,3.15a6.09,6.09,0,0,0-6,6.15V22.62a6.09,6.09,0,0,0,6,6.15h13a6.09,6.09,0,0,0,6-6.15V9.3a6.09,6.09,0,0,0-6-6.15Zm13,28.27h-13a8.73,8.73,0,0,1-8.61-8.8V9.3A8.72,8.72,0,0,1,9.49.49h13A8.72,8.72,0,0,1,31.12,9.3h0V22.62a8.73,8.73,0,0,1-8.61,8.8ZM16,10.69a5.27,5.27,0,1,0,5.15,5.39V16A5.21,5.21,0,0,0,16,10.69h0m0,13.18A7.94,7.94,0,0,1,16,8a7.92,7.92,0,0,1,0,15.83M25.94,7.59a1.86,1.86,0,1,1-1.86-1.91,1.88,1.88,0,0,1,1.86,1.9h0" fill="#fff" fill-rule="evenodd"/></svg>
