<svg xmlns="http://www.w3.org/2000/svg" width="32" height="32" viewBox="0 0 32 32" preserveAspectRatio="xMinYMid" aria-hidden="true" focusable="false"><path d="M26.65,26.65H22.17v-7c0-1.67,0-3.82-2.34-3.82s-2.69,1.82-2.69,3.7v7.14H12.66V12.22H17v2H17a4.72,4.72,0,0,1,4.25-2.34c4.54,0,5.38,3,5.38,6.88v7.92ZM7.6,10.24a2.6,2.6,0,1,1,2.6-2.6A2.59,2.59,0,0,1,7.6,10.24ZM9.85,26.65H5.36V12.22H9.85ZM28.89.88H3.11A2.19,2.19,0,0,0,.88,3.05V29a2.19,2.19,0,0,0,2.23,2.17H28.88A2.2,2.2,0,0,0,31.12,29V3.05A2.2,2.2,0,0,0,28.88.88Z" fill="#fff"/></svg>
