<svg xmlns="http://www.w3.org/2000/svg" width="32" height="32" viewBox="0 0 32 32" preserveAspectRatio="xMinYMid" aria-hidden="true" focusable="false"><path d="M28.1,9.85c0,.26,0,.53,0,.8A17.56,17.56,0,0,1,10.36,28.26,17.82,17.82,0,0,1,.79,25.48a14.36,14.36,0,0,0,1.48.08A12.6,12.6,0,0,0,10,22.92a6.25,6.25,0,0,1-5.83-4.3A6.29,6.29,0,0,0,7,18.51a6.21,6.21,0,0,1-5-6.07v-.08a6.14,6.14,0,0,0,2.83.78A6.18,6.18,0,0,1,2.9,4.87a17.77,17.77,0,0,0,12.87,6.47,5.92,5.92,0,0,1-.16-1.41A6.25,6.25,0,0,1,26.41,5.7a12.56,12.56,0,0,0,4-1.51,6.19,6.19,0,0,1-2.74,3.43,12.33,12.33,0,0,0,3.58-1A12.49,12.49,0,0,1,28.1,9.85" fill="#fff" fill-rule="evenodd"/></svg>
