<svg xmlns="http://www.w3.org/2000/svg" width="32" height="32" viewBox="0 0 32 32" preserveAspectRatio="xMinYMid" aria-hidden="true" focusable="false"><path d="M12.89,20.6V11.35L20.83,16ZM30.55,8.44a3.86,3.86,0,0,0-2.69-2.77C25.49,5,16,5,16,5S6.51,5,4.14,5.67A3.86,3.86,0,0,0,1.45,8.44,41.85,41.85,0,0,0,.82,16a42.33,42.33,0,0,0,.63,7.54,3.88,3.88,0,0,0,2.69,2.77C6.51,27,16,27,16,27s9.49,0,11.86-.65a3.86,3.86,0,0,0,2.69-2.77A42.33,42.33,0,0,0,31.18,16a42.33,42.33,0,0,0-.63-7.54Z" fill="#fff" fill-rule="evenodd"/></svg>
