<?xml version="1.0" standalone="no"?>
<!DOCTYPE svg PUBLIC "-//W3C//DTD SVG 20010904//EN"
 "http://www.w3.org/TR/2001/REC-SVG-20010904/DTD/svg10.dtd">
<svg version="1.0" xmlns="http://www.w3.org/2000/svg"
 width="512.000000pt" height="512.000000pt" viewBox="0 0 512.000000 512.000000"
 preserveAspectRatio="xMidYMid meet">
<metadata>
Created by potrace 1.11, written by Peter Selinger 2001-2013
</metadata>
<g transform="translate(0.000000,512.000000) scale(0.100000,-0.100000)"
fill="#000000" stroke="none">
<path d="M0 2560 l0 -2560 435 0 435 0 0 2560 0 2560 -435 0 -435 0 0 -2560z"/>
<path d="M2990 5105 c375 -59 678 -208 941 -463 133 -128 225 -251 303 -402
358 -695 135 -1510 -537 -1959 -63 -43 -237 -132 -343 -177 -20 -8 28 -84 669
-1056 l690 -1048 203 0 204 0 0 2560 0 2560 -1107 -1 c-961 -1 -1097 -3 -1023
-14z"/>
<path d="M1790 3559 l0 -690 508 4 c569 4 548 1 717 81 310 147 471 452 395
750 -68 268 -311 478 -615 531 -70 12 -181 15 -546 15 l-459 0 0 -691z"/>
<path d="M1790 1000 l0 -1000 895 0 c492 0 895 2 895 4 0 3 -189 299 -419 658
-231 359 -518 807 -638 995 l-218 342 -257 0 -258 1 0 -1000z"/>
</g>
</svg>
