<?xml version="1.0" standalone="no"?>
<!DOCTYPE svg PUBLIC "-//W3C//DTD SVG 20010904//EN"
 "http://www.w3.org/TR/2001/REC-SVG-20010904/DTD/svg10.dtd">
<svg version="1.0" xmlns="http://www.w3.org/2000/svg"
 width="700.000000pt" height="700.000000pt" viewBox="0 0 700.000000 700.000000"
 preserveAspectRatio="xMidYMid meet">
<metadata>
Created by potrace 1.11, written by Peter Selinger 2001-2013
</metadata>
<g transform="translate(0.000000,700.000000) scale(0.100000,-0.100000)"
fill="#000000" stroke="none">
<path d="M0 3500 l0 -3500 595 0 595 0 0 3500 0 3500 -595 0 -595 0 0 -3500z"/>
<path d="M4020 6984 c619 -74 1149 -360 1542 -834 120 -145 266 -405 337 -597
29 -78 84 -291 96 -363 28 -186 28 -464 -1 -650 -18 -120 -74 -317 -127 -444
-217 -530 -677 -975 -1234 -1195 l-82 -33 38 -57 c21 -31 86 -130 146 -221 60
-91 178 -271 263 -400 86 -129 192 -291 237 -360 45 -69 171 -260 280 -425
109 -165 230 -349 270 -410 40 -60 174 -264 299 -453 124 -189 226 -347 226
-352 0 -4 3 -10 8 -12 4 -2 33 -42 65 -90 l57 -88 280 0 280 0 0 3500 0 3500
-1547 -1 c-1364 -1 -1534 -3 -1433 -15z"/>
<path d="M2450 4865 l0 -945 628 0 c616 1 649 3 819 34 50 9 171 55 248 94
186 93 352 250 446 422 7 14 14 27 14 30 1 3 11 25 22 50 75 167 80 402 14
593 -75 216 -257 419 -476 530 -117 59 -236 101 -320 113 -27 4 -59 9 -70 12
-11 4 -314 8 -672 9 l-653 4 0 -946z"/>
<path d="M2450 1365 l0 -1365 1225 0 c1165 0 1225 1 1216 18 -6 9 -39 61 -73
114 -35 54 -85 133 -113 175 -27 43 -77 121 -111 173 -34 52 -151 234 -259
405 -109 171 -226 353 -260 405 -34 52 -128 200 -211 328 -82 127 -215 334
-297 460 -81 125 -152 236 -157 247 -6 11 -66 106 -133 210 l-124 190 -351 3
-352 2 0 -1365z"/>
</g>
</svg>
